<svg width="109" height="16" viewBox="0 0 109 16" fill="none" xmlns="http://www.w3.org/2000/svg">
<path fill-rule="evenodd" clip-rule="evenodd" d="M8.653 0.303198L17.306 15.604H0L8.653 0.303198Z" fill="#010507"/>
<path fill-rule="evenodd" clip-rule="evenodd" d="M22.4475 15.1366L28.7843 0.196527L30.1099 0.770554L23.7731 15.7107L22.4475 15.1366Z" fill="#010507"/>
<path d="M37.6549 0.667502V0.181763H38.6163V0.667502C38.6163 1.74057 39.4772 2.61046 40.5392 2.61046H41.0199V3.58194H40.5392C39.4772 3.58194 38.6163 4.45183 38.6163 5.5249V6.01064H37.6549V5.5249C37.6549 4.45183 36.794 3.58194 35.732 3.58194H35.2513V2.61046H35.732C36.794 2.61046 37.6549 1.74057 37.6549 0.667502Z" fill="#010507"/>
<path d="M49.1922 4.55342V5.03916H48.2308V4.55342C48.2308 4.01689 47.8003 3.58194 47.2693 3.58194H46.7886V2.61046H47.2693C47.8003 2.61046 48.2308 2.17551 48.2308 1.63898V1.15324H49.1922V1.63898C49.1922 2.17551 49.6227 2.61046 50.1537 2.61046H50.6344V3.58194H50.1537C49.6227 3.58194 49.1922 4.01689 49.1922 4.55342Z" fill="#010507"/>
<path d="M43.3342 4.97056L43.4235 4.06768H44.385L44.4743 4.97056C44.702 7.27098 46.5028 9.09049 48.7794 9.32053L49.6729 9.41082V10.3823L48.7794 10.4725C46.5028 10.7026 44.702 12.5222 44.4743 14.8225L44.385 15.7254H43.4235L43.3342 14.8225C43.1065 12.5222 41.3058 10.7026 39.0292 10.4725L38.1356 10.3823V9.41082L39.0292 9.32053C41.3058 9.09049 43.1065 7.27098 43.3342 4.97056Z" fill="#010507"/>
<path d="M98.5645 14.1613V1.74584H101.195V7.16669L105.66 1.74584H108.723L104.206 7.21915L109 14.1613H106.006L102.476 9.00279L101.195 10.5066V14.1613H98.5645Z" fill="#010507"/>
<path d="M86.3455 14.1613V1.74584H90.5855C92.5814 1.74584 94.1159 2.28792 95.1889 3.37209C96.2618 4.44461 96.7983 5.9776 96.7983 7.97108C96.7983 9.9529 96.2676 11.4801 95.2062 12.5526C94.1563 13.6251 92.6506 14.1613 90.6893 14.1613H86.3455ZM88.976 11.9231H90.5855C91.7738 11.9231 92.6506 11.6025 93.216 10.9613C93.7928 10.3085 94.0813 9.30589 94.0813 7.95359C94.0813 6.60129 93.7928 5.60455 93.216 4.96338C92.6506 4.31054 91.7738 3.98413 90.5855 3.98413H88.976V11.9231Z" fill="#010507"/>
<path d="M79.6993 14.4411C78.6379 14.4411 77.7264 14.2604 76.965 13.899C76.2035 13.5377 75.6093 13.0305 75.1824 12.3777C74.7556 11.7249 74.5133 10.9555 74.4556 10.0695L77.1034 9.94707C77.1726 10.4367 77.3111 10.8564 77.5187 11.2061C77.738 11.5442 78.0264 11.8007 78.384 11.9755C78.7532 12.1504 79.2032 12.2378 79.7339 12.2378C80.1723 12.2378 80.5415 12.1854 80.8415 12.0804C81.153 11.9755 81.3895 11.8181 81.551 11.6083C81.7126 11.3868 81.7933 11.1187 81.7933 10.8039C81.7933 10.5125 81.7241 10.2618 81.5857 10.052C81.4472 9.83049 81.1819 9.63231 80.7896 9.45744C80.3973 9.27092 79.8204 9.09022 79.059 8.91536C78.0091 8.67054 77.1611 8.39659 76.515 8.09348C75.8804 7.79038 75.419 7.41151 75.1305 6.95685C74.8421 6.49054 74.6979 5.90766 74.6979 5.20819C74.6979 4.46209 74.8767 3.80926 75.2344 3.24969C75.6036 2.69011 76.1343 2.25295 76.8265 1.93819C77.5188 1.62343 78.3437 1.46605 79.3013 1.46605C80.3166 1.46605 81.1761 1.64675 81.8799 2.00814C82.5836 2.36953 83.1317 2.86498 83.5239 3.4945C83.9277 4.12402 84.17 4.8468 84.2508 5.66284L81.6203 5.80274C81.5857 5.3714 81.4703 4.99835 81.2742 4.68359C81.078 4.35717 80.8127 4.10653 80.4781 3.93167C80.1435 3.7568 79.7397 3.66937 79.2667 3.66937C78.6667 3.66937 78.1937 3.80343 77.8476 4.07156C77.513 4.33969 77.3457 4.68942 77.3457 5.12076C77.3457 5.42386 77.4207 5.68033 77.5707 5.89017C77.7322 6.08835 77.9918 6.26322 78.3494 6.41477C78.7186 6.56632 79.2378 6.71204 79.907 6.85193C81.0492 7.08509 81.9491 7.38236 82.6067 7.74375C83.2759 8.09348 83.7489 8.51316 84.0258 9.00279C84.3027 9.49241 84.4411 10.052 84.4411 10.6815C84.4411 11.4509 84.245 12.1212 83.8527 12.6925C83.472 13.252 82.924 13.6834 82.2087 13.9865C81.5049 14.2896 80.6684 14.4411 79.6993 14.4411Z" fill="#010507"/>
<path d="M65.7101 14.1613V1.74584H68.3406V14.1613H65.7101Z" fill="#010507"/>
<path d="M52.5562 14.1613L56.9865 1.74584H60.1016L64.5319 14.1613H61.7976L60.8977 11.5209H56.1731L55.2732 14.1613H52.5562ZM56.9173 9.33503H60.1708L58.5441 4.5437L56.9173 9.33503Z" fill="#010507"/>
</svg>
