<svg width="75" height="21" viewBox="0 0 75 21" fill="none" xmlns="http://www.w3.org/2000/svg">
<g clip-path="url(#clip0_6971_6354)">
<path d="M75.4716 2.57828C75.2232 3.55985 74.48 4.36592 73.7314 5.01893C73.4655 5.24391 73.1656 5.42764 72.8435 5.56379C72.4538 5.73317 72.192 5.62501 71.9576 5.28014C71.667 4.81281 71.4722 4.29437 71.3831 3.75371C71.3041 3.39326 71.2592 3.02644 71.2485 2.65787C71.2271 2.12415 71.3838 1.59827 71.6945 1.16001C71.8666 0.911589 72.0976 0.707464 72.3667 0.564732C72.6359 0.422001 72.9359 0.344822 73.2419 0.339659C73.7387 0.312188 74.2342 0.415746 74.6775 0.639639C75.3886 1.00309 75.6584 1.83752 75.4716 2.57828Z" fill="#010507"/>
<path d="M73.0288 7.28214C72.8654 6.76995 72.386 6.67812 71.9233 6.63527C71.164 6.56792 70.5687 6.94338 70.0893 7.45156C69.6949 7.88603 69.3507 8.36239 69.0628 8.87182C68.4609 9.89523 68.0953 11.0254 67.7451 12.1475C67.5167 12.8773 67.3172 13.5193 67.0333 14.4662C66.8651 15.0263 66.6751 15.8903 66.148 16.3267C66.0161 16.4463 65.844 16.5139 65.6646 16.5164C65.4447 16.4858 65.3659 16.2572 65.3555 16.045C65.3431 15.8104 65.3431 15.5757 65.3534 15.341C65.4141 14.6216 65.5668 13.9127 65.8077 13.231C66.1604 12.1086 66.54 10.9944 66.8823 9.86789C67.0286 9.47913 67.0353 9.05283 66.901 8.65979C66.8427 8.52114 66.75 8.39902 66.6313 8.30476C66.1563 7.93741 65.2954 7.99866 64.7746 8.3394C64.6025 8.45573 64.4324 8.57614 64.2519 8.69859C64.2125 8.63535 64.1814 8.59043 64.1523 8.54149C64.037 8.32182 63.8783 8.12698 63.6856 7.9683C63.493 7.80956 63.2701 7.6902 63.0301 7.61702C62.5276 7.48621 62.0081 7.42982 61.4888 7.44971C60.8784 7.45288 60.2771 7.59463 59.7317 7.86396C58.8744 8.29066 58.1446 8.92919 57.6137 9.71692C57.0255 10.5064 56.5024 11.341 56.0496 12.2126C55.5786 13.0895 55.2357 14.0272 55.031 14.9982C54.9615 15.3536 54.92 15.7139 54.9065 16.0756C54.9033 16.3688 54.9304 16.6613 54.9874 16.9491C55.0618 17.5211 55.3395 18.0489 55.7715 18.4387C56.1655 18.7465 56.6419 18.9351 57.1428 18.9816C57.7554 19.0699 58.3807 18.9626 58.9268 18.6755C59.5193 18.3689 60.0522 17.962 60.5013 17.4735C60.6901 17.2735 60.8892 17.0817 61.105 16.8613C61.1299 16.9899 61.1485 17.0715 61.161 17.1531C61.2385 17.7635 61.5026 18.3363 61.9182 18.7959C62.6193 19.5224 63.5176 19.6428 64.4635 19.506C64.984 19.4299 65.4821 19.2464 65.9254 18.9675C66.1565 18.8226 66.8356 18.0396 67.1003 18.2429C67.4257 18.4922 67.4585 18.9532 67.8227 19.1944C68.0116 19.3 68.2218 19.363 68.4388 19.3788C68.655 19.3945 68.8727 19.3626 69.0749 19.2854C69.6541 19.0826 70.1964 18.7898 70.6805 18.4181C70.7863 18.3502 70.8694 18.2539 70.9209 18.1406C70.9718 18.0273 70.9886 17.9018 70.9691 17.7794C70.9075 16.7836 70.9825 15.7841 71.1935 14.8082C71.4445 13.6878 71.7512 12.5798 72.0726 11.4778C72.3967 10.3555 72.9297 9.2922 73.0911 8.12289C73.1332 7.84157 73.1118 7.55464 73.0288 7.28214ZM62.5633 10.8086C62.234 12.1765 61.5903 13.4519 60.6818 14.537C60.3661 14.9504 59.9851 15.3114 59.5533 15.6063C59.2981 15.7736 59.0492 15.8348 58.9081 15.5246C58.8695 15.4393 58.845 15.3483 58.8355 15.2553C58.7795 14.7227 59.0471 14.1676 59.2317 13.682C59.4351 13.1351 59.6625 12.5997 59.9142 12.0759C60.2773 11.3189 60.7025 10.5923 61.3664 10.0475C61.5835 9.88633 61.825 9.75967 62.082 9.672C62.2584 9.60264 62.4658 9.75769 62.5467 9.9495C62.6433 10.2272 62.6491 10.5276 62.5633 10.8086Z" fill="#010507"/>
<path d="M23.6495 13.6433C23.2803 14.7719 22.5439 15.5045 21.3365 15.7432C20.6342 15.9004 19.9006 15.8536 19.2248 15.6085C18.9223 15.4947 18.661 15.2951 18.4741 15.035C18.2872 14.7748 18.1832 14.4658 18.1751 14.1474C18.1253 13.2964 18.4718 12.5618 18.8742 11.8435C19.0422 11.5455 19.2165 11.2497 19.3555 10.9374C19.4152 10.7813 19.4379 10.6138 19.4218 10.4476C19.4135 10.3924 19.3925 10.3397 19.3604 10.2936C19.3284 10.2475 19.286 10.2093 19.2366 10.1817C19.1871 10.1542 19.132 10.1381 19.0753 10.1346C19.0186 10.1312 18.9619 10.1406 18.9095 10.162C18.6102 10.2987 18.3311 10.4743 18.0796 10.6844C17.0694 11.5965 16.2583 12.674 15.4762 13.778C14.64 14.9461 13.8792 16.1647 13.1985 17.4268C12.9765 17.8431 12.8106 18.292 12.5595 18.6879C12.3847 18.9811 12.1321 19.222 11.8289 19.3848C11.5256 19.5476 11.183 19.6263 10.8378 19.6123C10.4401 19.6297 10.0442 19.5513 9.68433 19.3837C9.40639 19.2361 9.19359 18.9927 9.08692 18.7002C8.67412 18.9267 8.26541 19.1776 7.83392 19.3777C7.16092 19.7145 6.43391 19.9348 5.68482 20.0286C5.1753 20.0941 4.66132 20.12 4.14766 20.1062C3.19543 20.0723 2.2793 19.739 1.53385 19.1552C0.800072 18.5628 0.300861 17.736 0.123228 16.8186C-0.0184823 16.141 -0.0381422 15.444 0.0651442 14.7596C0.226383 13.6877 0.581912 12.653 1.11481 11.7047C1.53803 10.91 2.04267 10.1599 2.62086 9.46607C3.22051 8.74757 3.93017 8.12518 4.72435 7.62128C5.31096 7.24609 5.96624 6.98683 6.65359 6.8581C7.54352 6.69484 8.31107 6.99684 9.02472 7.48256C9.52129 7.81375 9.94058 8.24499 10.2548 8.74777C10.543 9.26049 10.6195 9.8626 10.4685 10.4293C10.3144 11.048 10.0882 11.6472 9.79428 12.2149C9.52464 12.8026 9.257 13.3903 8.98113 13.976C8.93553 14.1033 8.84052 14.2076 8.71684 14.2661C8.59324 14.3247 8.45102 14.3326 8.32145 14.2882C7.93691 14.1684 7.59093 13.9517 7.318 13.6595C7.04501 13.3674 6.85458 13.01 6.76559 12.623C6.70098 12.0685 6.79285 11.5072 7.03115 11.0007C7.27803 10.3742 7.5622 9.76195 7.836 9.14772C7.86131 9.10656 7.87785 9.06071 7.88454 9.01302C7.89124 8.96533 7.88796 8.91679 7.87497 8.87042C7.86198 8.82398 7.83948 8.78064 7.80888 8.74309C7.77828 8.70555 7.74025 8.67446 7.69706 8.65186C7.38275 8.72373 7.09784 8.88734 6.87969 9.12118C6.49386 9.4967 6.12875 9.89257 5.78025 10.3027C5.07856 11.165 4.47997 12.1038 3.99622 13.1005C3.69337 13.6736 3.50466 14.2984 3.44027 14.9412C3.37615 15.4351 3.39226 15.9359 3.48798 16.4248C3.54055 16.7356 3.70012 17.0191 3.93995 17.2279C4.17978 17.4367 4.48529 17.5581 4.80526 17.5716C6.03247 17.639 7.25058 17.3287 8.29031 16.684C8.68678 16.4167 9.06771 16.1279 9.43129 15.8187C9.49785 15.7569 9.54774 15.6797 9.57646 15.5942C9.94366 14.629 10.288 13.6556 10.678 12.7006C10.9643 11.9925 11.3045 11.3047 11.624 10.6109C11.9247 9.92939 12.293 9.27867 12.7234 8.6682C13.2088 7.9968 13.8208 7.48869 14.6734 7.38053C15.36 7.29279 15.9927 7.51925 16.3205 8.28247C16.6089 8.95387 16.4429 9.59873 16.2209 10.2436C16.1629 10.4089 16.1068 10.5742 16.0342 10.7864C16.4346 10.3579 16.7748 9.94974 17.1586 9.59056C17.7765 8.97409 18.4944 8.46308 19.2828 8.07841C19.8476 7.80011 20.4726 7.66074 21.1042 7.67233C21.8863 7.70704 22.6165 7.90089 23.1641 8.51104C23.4025 8.78663 23.5596 9.12118 23.6184 9.47832C23.747 10.1416 23.523 10.7374 23.274 11.3333C23.0894 11.7741 22.9007 12.2149 22.7617 12.6699C22.6497 13.0393 22.8488 13.3005 23.2471 13.4005C23.3354 13.423 23.4257 13.4374 23.5168 13.4434C23.6641 13.4495 23.6848 13.5311 23.6495 13.6433Z" fill="#010507"/>
<path d="M56.2066 8.28243C55.8792 7.5615 54.2649 7.48516 53.5986 7.70865C53.3352 7.80568 53.0838 7.93168 52.8493 8.0843C51.7351 8.76222 51.3389 9.63281 50.8163 10.7698C50.2978 11.8922 49.8206 13.035 49.2646 14.139C48.8954 14.8491 48.4753 15.5324 48.0076 16.1838C47.7417 16.6075 47.3155 16.9099 46.823 17.0245C46.5305 17.0817 46.4102 16.9531 46.3065 16.7021C46.211 16.4716 46.1529 16.2279 46.1343 15.9797C46.0927 15.267 46.1862 14.5528 46.4102 13.8737C46.74 12.786 47.0948 11.7065 47.4288 10.6209C47.6049 10.1494 47.6907 9.64981 47.6819 9.14749C47.684 8.97221 47.6449 8.79878 47.5675 8.64089C47.4902 8.483 47.3766 8.34488 47.2359 8.23738C46.9426 8.02647 46.5957 7.89941 46.2337 7.87029C45.8716 7.84111 45.5084 7.91093 45.1842 8.07205C44.4955 8.39448 44.0453 8.96997 43.7155 9.623C43.2487 10.5413 42.8276 11.482 42.3712 12.4044C42.058 13.0432 41.7198 13.6717 41.3921 14.3023C40.9768 15.1693 40.4773 15.9949 39.9006 16.7674C39.8093 16.8817 39.6475 17.0409 39.5437 17.0225C39.4193 17.0041 39.3197 16.8184 39.2139 16.7021C39.1958 16.6808 39.183 16.6556 39.1766 16.6286C39.0183 16.0664 38.9907 15.4764 39.0957 14.9023C39.2015 14.2533 39.3342 13.6064 39.4857 12.9656C39.7844 11.6861 40.1246 10.4147 40.4046 9.12911C40.4772 8.87644 40.4717 8.60829 40.389 8.35871C40.3062 8.10907 40.15 7.88926 39.94 7.72723C39.7308 7.58001 39.4927 7.47719 39.241 7.42522C38.9892 7.37325 38.7293 7.37325 38.4775 7.42515C37.7867 7.53127 37.2785 7.94354 36.874 8.49447C36.3785 9.17219 36.0272 9.94121 35.8409 10.7555C35.6812 11.429 35.5754 12.1147 35.4613 12.8003C35.4094 13.1166 35.4073 13.439 35.3679 13.7594C35.3567 13.8482 35.3183 13.9314 35.258 13.9982C34.982 14.2818 34.702 14.5594 34.4137 14.8308C33.8676 15.3486 33.2419 15.7784 32.5595 16.1042C32.115 16.3384 31.6244 16.4757 31.1211 16.5067C30.6178 16.5377 30.1136 16.4616 29.6429 16.2838C29.3383 16.1707 29.0678 15.9836 28.8567 15.7398C28.6456 15.4961 28.5007 15.2037 28.4355 14.89C28.84 14.89 29.23 14.8941 29.62 14.89C30.5429 14.88 31.4492 14.6466 32.2588 14.2104C33.0216 13.8283 33.6419 13.2182 34.0303 12.4677C34.4698 11.6303 34.5756 10.6617 34.327 9.75157C34.2162 9.32099 34.0044 8.92195 33.7086 8.58635C33.4129 8.25075 33.0414 7.988 32.6238 7.81905C32.1568 7.60161 31.6505 7.47811 31.1344 7.45578C30.6592 7.4156 30.1814 7.42041 29.7072 7.47007C28.7085 7.65286 27.7838 8.11236 27.0415 8.7945C26.2527 9.49284 25.6008 10.3277 25.1185 11.2576C24.5621 12.2894 24.2181 13.419 24.1062 14.5819C24.04 15.2467 24.0955 15.9178 24.27 16.5633C24.4849 17.4468 25.0252 18.2205 25.7864 18.7346C26.5778 19.24 27.4946 19.523 28.4376 19.5529C29.0949 19.5723 29.7528 19.5457 30.4063 19.4734C31.058 19.4002 31.6922 19.218 32.2815 18.9346C33.2523 18.498 34.1274 17.8798 34.858 17.1143C35.0862 16.8796 35.304 16.6327 35.499 16.4184C35.6857 16.8653 35.8538 17.3286 36.0674 17.7694C36.3252 18.3423 36.7882 18.802 37.3681 19.0611C37.9296 19.3021 38.5212 19.4688 39.1272 19.557C39.2836 19.5971 39.4477 19.5984 39.6048 19.5611C39.7618 19.5237 39.9071 19.4487 40.0275 19.3427C40.4279 18.955 40.8449 18.5816 41.2349 18.1836C41.4531 17.946 41.6588 17.6973 41.851 17.4388C42.1352 17.0817 42.4152 16.7185 42.7118 16.3389C42.7451 16.5245 42.7679 16.6817 42.8032 16.8368C42.9878 17.6265 43.3301 18.3122 44.0457 18.7754C44.5317 19.0691 45.0616 19.2853 45.6161 19.4162C46.5434 19.6857 47.5397 19.6034 48.4083 19.1856C49.3657 18.7143 50.2051 18.0404 50.8665 17.2123C51.3973 16.5973 51.8924 15.9535 52.3498 15.2838C53.0447 14.2349 53.7002 13.1554 54.335 12.0677C54.658 11.5143 54.9721 10.956 55.284 10.3966C55.539 9.93989 56.2209 9.13465 56.2624 8.6212C56.2733 8.50547 56.2541 8.38888 56.2066 8.28243ZM28.7135 12.2799C28.9272 11.7052 29.2496 11.1756 29.6636 10.7189C29.9128 10.4119 30.2575 10.194 30.6448 10.0984C30.7733 10.0778 30.905 10.0893 31.0278 10.1321C31.1505 10.1749 31.2602 10.2475 31.3468 10.3432C31.4333 10.4389 31.4938 10.5546 31.5227 10.6795C31.5515 10.8044 31.5479 10.9344 31.5119 11.0576C31.2153 12.2983 30.3793 13.0003 29.1636 13.3064C28.8982 13.3503 28.6299 13.3755 28.3608 13.3819C28.4894 12.9738 28.589 12.6228 28.7135 12.2799Z" fill="#010507"/>
</g>
<defs>
<clipPath id="clip0_6971_6354">
<rect width="75" height="19.9675" fill="white" transform="translate(0 0.294922)"/>
</clipPath>
</defs>
</svg>
