<svg width="72" height="28" viewBox="0 0 72 28" fill="none" xmlns="http://www.w3.org/2000/svg">
<g clip-path="url(#clip0_6971_6437)">
<path d="M62.5469 21.0558V7.72607H64.654V16.5232L69.1106 11.4039H71.6652L67.6561 15.7911L71.7025 21.0558H69.1851L65.9077 16.5321L64.654 16.5232V21.0558H62.5469Z" fill="black"/>
<path d="M56.1566 21.2798C53.024 21.2798 51.3271 19.0581 51.3271 16.2204C51.3271 13.3641 53.024 11.1611 56.1566 11.1611C59.3079 11.1611 60.9861 13.3641 60.9861 16.2204C60.9861 19.0581 59.3079 21.2798 56.1566 21.2798ZM53.5275 16.2204C53.5275 18.4234 54.7208 19.5248 56.1566 19.5248C57.6111 19.5248 58.7859 18.4234 58.7859 16.2204C58.7859 14.0175 57.6111 12.8973 56.1566 12.8973C54.7208 12.8973 53.5275 14.0175 53.5275 16.2204Z" fill="black"/>
<path d="M45.4629 21.0557V12.9347L47.2343 11.4038H51.001V13.196H47.57V21.0557H45.4629Z" fill="black"/>
<path d="M37.4063 21.3023C33.3902 21.3023 30.9956 18.3861 30.9956 14.4096C30.9956 10.3958 33.4757 7.40869 37.4847 7.40869C40.6173 7.40869 42.9109 9.01423 43.4517 12.0013H41.0462C40.692 10.3024 39.2748 9.35028 37.4847 9.35028C34.5945 9.35028 33.3264 11.852 33.3264 14.4096C33.3264 16.9672 34.5945 19.4502 37.4847 19.4502C40.2444 19.4502 41.4565 17.4526 41.5497 15.7911H37.3915V13.858H43.6755L43.6652 14.8687C43.6652 18.6243 42.1347 21.3023 37.4063 21.3023Z" fill="black"/>
<path d="M10.8305 18.0555L19.8972 11.3545C20.3417 11.026 20.977 11.1542 21.1888 11.6645C22.3035 14.3556 21.8055 17.5896 19.5877 19.81C17.3699 22.0304 14.284 22.5174 11.4635 21.4084L8.38232 22.8367C12.8017 25.8609 18.1681 25.113 21.5216 21.7532C24.1816 19.09 25.0054 15.4599 24.2351 12.1864L24.242 12.1933C23.125 7.38431 24.5167 5.46209 27.3675 1.53144C27.4349 1.43824 27.5024 1.34504 27.5699 1.24951L23.8185 5.00542V4.99377L10.8282 18.0579" fill="black"/>
<path d="M8.95918 19.684C5.78719 16.6504 6.33408 11.9555 9.04059 9.24812C11.0419 7.24433 14.321 6.42651 17.1834 7.62877L20.2576 6.20749C19.7038 5.80674 18.9939 5.3757 18.1794 5.0728C14.4979 3.556 10.0901 4.3109 7.0974 7.3049C4.21867 10.1871 3.31339 14.6187 4.86796 18.4002C6.02922 21.2265 4.12558 23.2255 2.20798 25.2433C1.52844 25.9586 0.846576 26.6739 0.297363 27.4311L8.9568 19.6863" fill="black"/>
</g>
<defs>
<clipPath id="clip0_6971_6437">
<rect width="72" height="27" fill="white" transform="translate(0 0.840332)"/>
</clipPath>
</defs>
</svg>
