<svg width="137" height="23" viewBox="0 0 137 23" fill="none" xmlns="http://www.w3.org/2000/svg">
<g clip-path="url(#clip0_6971_6343)">
<path fill-rule="evenodd" clip-rule="evenodd" d="M10.4769 0.96167H30.4415C36.1303 0.96167 40.7582 5.64521 40.7582 11.402C40.7582 17.1588 36.1303 21.8424 30.4415 21.8424H10.4769C4.78802 21.8424 0.160156 17.1588 0.160156 11.402C0.160156 5.64521 4.78802 0.96167 10.4769 0.96167ZM19.6431 17.1457C19.8937 17.4115 20.2647 17.3984 20.5934 17.3295L20.5967 17.3311C20.7492 17.2059 20.5324 17.0475 20.3253 16.8961C20.2011 16.8053 20.0804 16.7171 20.045 16.6402C20.1597 16.4992 19.8206 16.1791 19.5566 15.9299C19.4458 15.8253 19.3482 15.7331 19.303 15.672C19.1152 15.4658 19.0397 15.2057 18.9637 14.944C18.9133 14.7703 18.8628 14.596 18.7791 14.4363C18.2632 13.2285 17.6725 12.0305 16.8443 11.0081C16.3119 10.3286 15.7044 9.72011 15.0967 9.11141C14.705 8.71894 14.3131 8.32647 13.9412 7.91479C13.5586 7.5164 13.3283 7.02563 13.0977 6.53406C12.9046 6.12252 12.7112 5.71041 12.4279 5.35147C11.5704 4.07145 8.86265 3.72191 8.46559 5.53034C8.46723 5.58614 8.44935 5.62224 8.40047 5.65834C8.18083 5.82081 7.98553 6.00461 7.82123 6.22779C7.41927 6.79395 7.35741 7.75396 7.85862 8.26271C7.85933 8.25178 7.86005 8.24092 7.86077 8.23007C7.87754 7.97316 7.8932 7.73303 8.09457 7.54884C8.48184 7.88524 9.06931 8.00501 9.51844 7.75396C10.0599 8.53731 10.2324 9.48426 10.4055 10.4344C10.5496 11.226 10.6942 12.0198 11.0529 12.723C11.0603 12.7355 11.0677 12.7479 11.0752 12.7604C11.2859 13.1144 11.5002 13.474 11.7705 13.7832C11.8687 13.9367 12.0704 14.1024 12.2717 14.2678C12.5373 14.4862 12.8023 14.7039 12.8282 14.8925C12.8294 14.9746 12.829 15.0577 12.8287 15.1413C12.8266 15.6366 12.8244 16.1494 13.139 16.5566C13.3131 16.9126 12.8868 17.2704 12.5435 17.2261C12.3552 17.2524 12.1495 17.2024 11.9453 17.1527C11.6659 17.0847 11.3892 17.0174 11.1636 17.1473C11.1003 17.2164 11.0093 17.2188 10.918 17.2213C10.8097 17.2241 10.7007 17.227 10.6363 17.341C10.6231 17.3749 10.5922 17.4131 10.56 17.4528C10.4894 17.5401 10.4129 17.6347 10.5045 17.7069C10.5128 17.7006 10.5209 17.6943 10.5291 17.688C10.6679 17.5812 10.8003 17.4792 10.9878 17.5428C10.9629 17.6825 11.0523 17.7199 11.1417 17.7573C11.1573 17.7638 11.173 17.7704 11.188 17.7775C11.187 17.8099 11.1807 17.8426 11.1743 17.8751C11.1593 17.9526 11.1446 18.0287 11.2042 18.0958C11.2326 18.0668 11.2576 18.0342 11.2827 18.0015C11.3441 17.9214 11.4057 17.841 11.5167 17.8119C11.7606 18.1404 12.0064 18.004 12.3147 17.8328C12.6625 17.6397 13.0899 17.4023 13.6841 17.7381C13.4564 17.7266 13.2529 17.7545 13.0999 17.9449C13.0626 17.9875 13.03 18.0367 13.0967 18.0925C13.4483 17.8628 13.5946 17.9454 13.7323 18.0231C13.8317 18.0792 13.9266 18.1327 14.0909 18.0646C14.1298 18.0442 14.1686 18.023 14.2075 18.0019C14.4715 17.8583 14.7392 17.7126 15.0526 17.7627C14.8186 17.8308 14.7352 17.9804 14.6443 18.1438C14.5994 18.2245 14.5526 18.3086 14.4847 18.3879C14.449 18.4241 14.4327 18.4667 14.4734 18.5275C14.9636 18.4863 15.1487 18.361 15.399 18.1916C15.5184 18.1108 15.6526 18.02 15.8418 17.9235C16.051 17.7936 16.2602 17.8767 16.4629 17.9572C16.6829 18.0446 16.8952 18.1289 17.0916 17.935C17.1536 17.876 17.2315 17.8753 17.3089 17.8746C17.3371 17.8743 17.3653 17.8741 17.3926 17.871C17.3315 17.5408 16.9866 17.5446 16.6366 17.5486C16.2317 17.5531 15.8199 17.5578 15.8321 17.0456C16.2083 16.7865 16.2118 16.3368 16.215 15.9117C16.2159 15.8091 16.2166 15.708 16.2227 15.6113C16.4993 15.7669 16.792 15.8885 17.0829 16.0093C17.3565 16.123 17.6285 16.236 17.8841 16.376C18.1509 16.8093 18.5675 17.3836 19.1224 17.3459C19.137 17.3016 19.1501 17.2638 19.1663 17.2195C19.1983 17.2252 19.2321 17.2338 19.2664 17.2425C19.4121 17.2798 19.568 17.3196 19.6431 17.1457ZM30.5189 12.2223C30.8401 12.5456 31.2759 12.7272 31.7303 12.7272C32.1846 12.7272 32.6204 12.5456 32.9417 12.2223C33.263 11.8991 33.4435 11.4607 33.4435 11.0036C33.4435 10.5464 33.263 10.108 32.9417 9.7848C32.6204 9.46156 32.1846 9.27993 31.7303 9.27993C31.5175 9.27993 31.3087 9.31981 31.114 9.39536L30.132 7.9498L29.4476 8.42268L30.4347 9.87574C30.1662 10.1879 30.017 10.588 30.017 11.0036C30.017 11.4607 30.1976 11.8991 30.5189 12.2223ZM27.4445 7.54101C27.6849 7.66084 27.9499 7.72218 28.2181 7.72007C28.5842 7.71724 28.9397 7.59655 29.2325 7.37564C29.5255 7.15475 29.7403 6.8453 29.8457 6.49262C29.951 6.13995 29.9413 5.7626 29.818 5.41587C29.6947 5.06914 29.4643 4.77125 29.1604 4.56586C28.9377 4.41534 28.6831 4.31953 28.4168 4.28614C28.1507 4.25275 27.8803 4.28273 27.6278 4.37365C27.3752 4.46458 27.1473 4.6139 26.9626 4.80961C26.7779 5.00532 26.6414 5.24194 26.5642 5.50041C26.487 5.75889 26.4711 6.03199 26.518 6.29773C26.5649 6.56348 26.6731 6.81443 26.8341 7.03038C26.995 7.24633 27.2041 7.42125 27.4445 7.54101ZM27.4445 17.5498C27.6849 17.6695 27.9499 17.7309 28.2181 17.7288C28.5842 17.726 28.9397 17.6052 29.2325 17.3844C29.5255 17.1635 29.7403 16.854 29.8457 16.5014C29.951 16.1487 29.9413 15.7713 29.818 15.4246C29.6947 15.0778 29.4643 14.78 29.1604 14.5746C28.9377 14.4241 28.6831 14.3282 28.4168 14.2949C28.1507 14.2615 27.8803 14.2915 27.6278 14.3824C27.3752 14.4733 27.1473 14.6227 26.9626 14.8184C26.7779 15.0141 26.6414 15.2506 26.5642 15.5091C26.487 15.7676 26.4711 16.0407 26.518 16.3064C26.5649 16.5722 26.6731 16.8231 26.8341 17.0391C26.995 17.2551 27.2041 17.43 27.4445 17.5498ZM29.0196 11.4321V10.5752H26.3974C26.3314 10.3153 26.2056 10.0747 26.0301 9.87252L27.0166 8.3986L26.2991 7.91874L25.3126 9.39259C25.1318 9.32672 24.9412 9.29198 24.7489 9.28981C24.2958 9.28981 23.8614 9.47038 23.541 9.79177C23.2206 10.1132 23.0406 10.5491 23.0406 11.0037C23.0406 11.4582 23.2206 11.8941 23.541 12.2155C23.8614 12.5369 24.2958 12.7175 24.7489 12.7175C24.9412 12.7153 25.1318 12.6805 25.3126 12.6147L26.2991 14.0886L27.0081 13.6087L26.0301 12.1348C26.2056 11.9326 26.3314 11.6919 26.3974 11.4321H29.0196Z" fill="#010507"/>
<path d="M97.2264 5.96856C96.3364 5.25471 95.109 4.89368 93.5795 4.89368C92.4761 4.89368 91.4725 5.15624 90.5955 5.67317C89.7178 6.1901 89.017 6.94498 88.5126 7.91482C88.0063 8.88632 87.7505 10.0728 87.7505 11.4431C87.7505 12.4884 87.9019 13.4288 88.2014 14.2378C88.4996 15.0452 88.9211 15.7361 89.451 16.2924C89.9815 16.8471 90.6066 17.2738 91.3093 17.5609C92.0128 17.8481 92.7775 17.9925 93.5814 17.9925C94.7821 17.9925 95.8268 17.7283 96.6874 17.2081C97.5481 16.6879 98.217 15.9593 98.6796 15.0419C99.1416 14.1229 99.3758 13.0579 99.3758 11.8747C99.3758 11.8402 99.3726 11.7319 99.3674 11.5497C99.3628 11.4037 99.3563 11.2839 99.3484 11.1953H95.0065V12.7379H97.2362L97.2264 12.8084C97.1207 13.542 96.9119 14.1623 96.6065 14.653C96.2985 15.1453 95.8953 15.5178 95.4105 15.759C94.9256 16.0003 94.3495 16.12 93.7132 16.1135C92.8604 16.102 92.1381 15.9002 91.5684 15.5129C90.9987 15.1256 90.5661 14.5791 90.2829 13.8849C90.001 13.1958 89.8581 12.3736 89.8581 11.4414C89.8581 10.5094 90.003 9.68224 90.2862 8.98483C90.5727 8.28406 91.004 7.73103 91.5717 7.34376C92.1394 6.95647 92.8617 6.76611 93.7132 6.7776C94.5622 6.7776 95.2721 7.00898 95.8222 7.46517C96.3592 7.90989 96.7527 8.50892 96.9967 9.24575L99.0294 8.9208C98.709 7.66213 98.1034 6.66765 97.2264 5.96527V5.96856Z" fill="#010507"/>
<path d="M123.61 8.66154C122.955 8.22334 122.182 8.00513 121.29 8.00513C120.399 8.00513 119.64 8.22334 119.032 8.66154C118.906 8.75176 118.791 8.84863 118.679 8.95201V8.26934H116.817V22.0196H118.94V17.3049C118.978 17.3344 119.015 17.364 119.054 17.3919C119.678 17.8333 120.449 18.0532 121.37 18.0532C122.237 18.0532 122.996 17.8333 123.642 17.3919C124.288 16.9505 124.789 16.3515 125.145 15.5933C125.5 14.8351 125.679 13.9802 125.679 13.0284C125.679 12.0765 125.498 11.2051 125.137 10.4503C124.776 9.69542 124.268 9.09968 123.612 8.66154H123.61ZM123.191 14.612C123.018 15.0846 122.755 15.4604 122.4 15.7361C122.045 16.0118 121.593 16.1496 121.045 16.1496C120.496 16.1496 120.023 16.0183 119.676 15.7574C119.329 15.4965 119.075 15.1305 118.916 14.6596C118.755 14.1902 118.675 13.6454 118.675 13.0284C118.675 12.4113 118.755 11.8599 118.916 11.3939C119.075 10.9262 119.326 10.5619 119.663 10.301C120.001 10.04 120.438 9.9087 120.974 9.9087C121.539 9.9087 122.006 10.0482 122.372 10.3272C122.74 10.6062 123.01 10.982 123.186 11.4563C123.36 11.9289 123.448 12.454 123.448 13.03C123.448 13.606 123.362 14.1394 123.191 14.612Z" fill="#010507"/>
<path d="M135.45 11.5792C135.413 11.2116 135.33 10.8227 135.202 10.4108C135.073 9.99889 134.874 9.61162 134.607 9.24732C134.339 8.88302 133.977 8.58268 133.524 8.34802C133.07 8.11335 132.492 7.99517 131.794 7.99517C130.909 7.99517 130.162 8.19048 129.557 8.58104C129.231 8.79109 128.95 9.04056 128.708 9.32774V5.09546H126.829V17.7873H128.963V12.8953C128.963 12.3144 129.026 11.8369 129.155 11.4627C129.283 11.0902 129.452 10.7965 129.666 10.5815C129.879 10.3665 130.117 10.2155 130.378 10.1269C130.64 10.0383 130.905 9.99396 131.174 9.99396C131.675 9.99396 132.072 10.1023 132.366 10.3206C132.661 10.5388 132.883 10.8161 133.031 11.1542C133.179 11.4922 133.273 11.8434 133.315 12.2077C133.356 12.572 133.377 12.9036 133.377 13.2038V17.7873H135.51V12.4719C135.51 12.2422 135.491 11.9452 135.453 11.5776L135.45 11.5792Z" fill="#010507"/>
<path d="M105.618 8.35299C105.328 8.37273 105.044 8.42847 104.768 8.51711C104.494 8.60575 104.241 8.72881 104.015 8.88141C103.748 9.04718 103.519 9.25888 103.33 9.51157C103.247 9.62318 103.17 9.74301 103.096 9.87587L103.018 10.0154V8.39241H101.262V17.7103H103.268V12.9726C103.268 12.6116 103.312 12.2686 103.398 11.9551C103.486 11.6416 103.623 11.3561 103.807 11.11C103.991 10.8622 104.231 10.6571 104.524 10.4979C104.814 10.3223 105.147 10.2173 105.512 10.1877C105.852 10.1598 106.16 10.1828 106.428 10.2533V8.38583C106.166 8.34483 105.895 8.33332 105.618 8.35299Z" fill="#010507"/>
<path d="M49.042 5.07251V17.7365H57.6908V15.823H51.0061V5.07251H49.042Z" fill="#010507"/>
<path d="M62.3025 8.07733C60.4182 8.07733 59.0074 8.96841 58.4346 10.5225C58.3971 10.6226 58.2881 10.9212 58.2881 10.9212L59.904 11.9748L60.1236 11.3971C60.4979 10.4125 61.1911 9.95464 62.3025 9.95464C63.4139 9.95464 64.0502 10.4979 64.0388 11.5695C64.0388 11.6137 64.0355 11.745 64.0355 11.745C64.0355 11.745 62.5645 11.9863 61.9592 12.1143C59.3735 12.6657 58.2897 13.6601 58.2897 15.2897C58.2897 16.1578 58.7681 17.0965 59.6404 17.6233C60.1643 17.94 60.8477 18.0581 61.6011 18.0581C62.0975 18.0581 62.5791 17.9843 63.0266 17.8464C64.042 17.5067 64.3235 16.8389 64.3235 16.8389V17.7119H66.0048V11.4661C66.0048 9.34252 64.6213 8.07568 62.3042 8.07568L62.3025 8.07733ZM64.0437 14.7432C64.0437 15.3996 63.3342 16.3235 61.6825 16.3235C61.2171 16.3235 60.8852 16.1988 60.6655 16.0134C60.371 15.7656 60.2733 15.4079 60.314 15.0944C60.3319 14.9582 60.4133 14.6628 60.7176 14.4068C61.0284 14.1442 61.5767 13.9588 62.4246 13.7717C63.1226 13.6191 64.0437 13.4501 64.0437 13.4501V14.7432Z" fill="#010507"/>
<path d="M111.501 8.07733C109.616 8.07733 108.205 8.96841 107.632 10.5225C107.595 10.6226 107.486 10.9212 107.486 10.9212L109.102 11.9748L109.322 11.3971C109.696 10.4125 110.389 9.95464 111.501 9.95464C112.612 9.95464 113.248 10.4979 113.237 11.5695C113.237 11.6137 113.234 11.745 113.234 11.745C113.234 11.745 111.762 11.9863 111.157 12.1143C108.571 12.6657 107.488 13.6601 107.488 15.2897C107.488 16.1578 107.966 17.0965 108.838 17.6233C109.362 17.94 110.046 18.0581 110.799 18.0581C111.296 18.0581 111.777 17.9843 112.224 17.8464C113.24 17.5067 113.522 16.8389 113.522 16.8389V17.7119H115.202V11.4661C115.202 9.34252 113.819 8.07568 111.502 8.07568L111.501 8.07733ZM113.242 14.7432C113.242 15.3996 112.532 16.3235 110.881 16.3235C110.415 16.3235 110.083 16.1988 109.863 16.0134C109.569 15.7656 109.471 15.4079 109.512 15.0944C109.53 14.9582 109.612 14.6628 109.916 14.4068C110.226 14.1442 110.775 13.9588 111.623 13.7717C112.321 13.6191 113.242 13.4501 113.242 13.4501V14.7432Z" fill="#010507"/>
<path d="M72.214 8.07733C71.9798 8.07733 71.752 8.09371 71.5321 8.12491C70.0268 8.35299 69.5863 9.1243 69.5863 9.1243V8.35299H67.7031V17.7168H69.6672V12.5229C69.6672 10.7588 70.9429 9.95464 72.1292 9.95464C73.4114 9.95464 74.0352 10.6505 74.0352 12.0798V17.7151H75.9993V11.8074C75.9993 9.50499 74.5494 8.07568 72.214 8.07568V8.07733Z" fill="#010507"/>
<path d="M84.1936 8.34642V9.31133C84.1936 9.31133 83.7121 8.07727 81.5235 8.07727C78.8045 8.07727 77.1138 9.97103 77.1138 13.0168C77.1138 14.7366 77.6586 16.0905 78.6204 16.9455C79.3676 17.6101 80.3666 17.9515 81.5575 17.9744C82.3842 17.9908 82.9212 17.7627 83.2547 17.5477C83.8974 17.1359 84.1349 16.7437 84.1349 16.7437C84.1349 16.7437 84.1075 17.0505 84.0586 17.4657C84.0227 17.766 83.9561 17.9777 83.9561 17.9777C83.6566 19.0509 82.7829 19.6712 81.5072 19.6712C80.2315 19.6712 79.4583 19.2478 79.3056 18.4142L77.397 18.9886C77.7271 20.5919 79.2195 21.5503 81.3884 21.5503C82.8625 21.5503 84.0194 21.1465 84.8253 20.3474C85.637 19.5432 86.0501 18.383 86.0501 16.8995V8.34642H84.1936ZM84.0703 13.1038C84.0703 14.9779 83.162 16.097 81.6423 16.097C80.0136 16.097 79.0792 14.9746 79.0792 13.0184C79.0792 11.0624 80.0136 9.95629 81.6423 9.95629C83.1261 9.95629 84.0573 11.0705 84.0703 12.8642V13.1021V13.1038Z" fill="#010507"/>
</g>
<defs>
<clipPath id="clip0_6971_6343">
<rect width="136.301" height="21.6246" fill="white" transform="translate(0 0.77832)"/>
</clipPath>
</defs>
</svg>
