<svg width="90" height="29" viewBox="0 0 90 29" fill="none" xmlns="http://www.w3.org/2000/svg">
<path fill-rule="evenodd" clip-rule="evenodd" d="M9.03447 1.85237C9.28132 1.94951 9.50418 2.10951 9.70647 2.32094C10.0436 2.67065 10.3282 3.17123 10.5453 3.76437C10.7636 4.36094 10.9053 5.02151 10.959 5.68437C11.6786 5.27729 12.4772 5.02942 13.3008 4.95751L13.359 4.95294C14.3533 4.87294 15.3362 5.05237 16.1933 5.49465C16.3088 5.55523 16.4219 5.62037 16.5328 5.68894C16.5899 5.03865 16.7293 4.39294 16.9442 3.81008C17.1613 3.2158 17.4459 2.71637 17.7819 2.36551C17.9697 2.16239 18.1994 2.0025 18.455 1.89694C18.7488 1.78265 19.0608 1.76208 19.3648 1.84894C19.823 1.97923 20.2162 2.26951 20.5259 2.69123C20.8093 3.07637 21.0219 3.57008 21.167 4.16208C21.4299 5.22951 21.4756 6.63408 21.2985 8.3278L21.359 8.37351L21.3888 8.39523C22.2539 9.05351 22.8562 9.9918 23.175 11.0809C23.6722 12.7804 23.4219 14.6867 22.5648 15.7529L22.5442 15.7769L22.5465 15.7804C23.023 16.6512 23.3122 17.5712 23.3739 18.5232L23.3762 18.5575C23.4493 19.7747 23.1476 20.9998 22.4459 22.2032L22.4379 22.2147L22.4493 22.2421C22.9888 23.5644 23.1579 24.8958 22.9499 26.2261L22.943 26.2707C22.9108 26.465 22.8028 26.6386 22.6428 26.7534C22.4828 26.8682 22.2837 26.9149 22.0893 26.8832C21.9931 26.8682 21.9007 26.8343 21.8176 26.7835C21.7344 26.7328 21.6621 26.6661 21.6048 26.5873C21.5474 26.5085 21.5062 26.4192 21.4835 26.3245C21.4607 26.2297 21.4569 26.1314 21.4722 26.0352C21.663 24.8547 21.4836 23.6707 20.9236 22.4661C20.8714 22.3542 20.8482 22.2309 20.8561 22.1077C20.8641 21.9844 20.9031 21.8652 20.9693 21.7609L20.9739 21.7541C21.6642 20.6981 21.9499 19.6627 21.8882 18.6455C21.8356 17.7552 21.5168 16.8809 20.9739 16.0478C20.8683 15.8858 20.8307 15.6888 20.8692 15.4993C20.9077 15.3099 21.0192 15.1432 21.1796 15.0352L21.1899 15.0284C21.4676 14.8467 21.7236 14.3827 21.8528 13.7484C21.9952 12.9983 21.958 12.2252 21.7442 11.4924C21.5099 10.6924 21.0813 10.0249 20.4813 9.56894C19.8013 9.05008 18.9008 8.7998 17.7613 8.8718C17.6123 8.88149 17.4639 8.84626 17.3351 8.77067C17.2063 8.69509 17.1032 8.58262 17.039 8.4478C16.6802 7.6878 16.1568 7.1438 15.5042 6.80665C14.8777 6.49397 14.1763 6.36255 13.479 6.42723C12.0562 6.54037 10.8013 7.34265 10.4276 8.35408C10.3747 8.49643 10.2796 8.61924 10.155 8.70604C10.0305 8.79285 9.88232 8.83952 9.73047 8.8398C8.51104 8.84208 7.56704 9.1278 6.87675 9.64323C6.28018 10.0889 5.87332 10.7118 5.65846 11.4581C5.46404 12.1605 5.43742 12.8989 5.58075 13.6135C5.70875 14.2512 5.95904 14.7792 6.24589 15.0638L6.25504 15.0718C6.49732 15.3084 6.54875 15.6775 6.37961 15.9689C5.96818 16.6798 5.66075 17.7392 5.61046 18.7575C5.55332 19.9209 5.82304 20.9312 6.43218 21.6558L6.45046 21.6775C6.54239 21.7846 6.60152 21.916 6.62077 22.0558C6.64002 22.1957 6.61859 22.3381 6.55904 22.4661C5.90075 23.8787 5.69846 25.0398 5.91675 25.9541C5.95599 26.1442 5.91948 26.3421 5.815 26.5057C5.71052 26.6693 5.54632 26.7857 5.35734 26.8301C5.16835 26.8745 4.96951 26.8434 4.80313 26.7434C4.63674 26.6434 4.51595 26.4824 4.46646 26.2947C4.18875 25.1312 4.37732 23.7987 5.00704 22.2969L5.02304 22.2569L5.01389 22.2432C4.7044 21.7861 4.47341 21.2805 4.33046 20.7472L4.32475 20.7255C4.15128 20.0602 4.08302 19.3719 4.12246 18.6855C4.17275 17.6455 4.44018 16.5804 4.83332 15.7255L4.84704 15.6958L4.84475 15.6935C4.50989 15.2158 4.26189 14.6044 4.12475 13.9278L4.11904 13.9004C3.93008 12.9566 3.9665 11.9817 4.22532 11.0547C4.52475 10.0089 5.11332 9.11066 5.98075 8.46151C6.04932 8.41008 6.12132 8.35865 6.19332 8.31066C6.01161 6.60437 6.05732 5.19065 6.32132 4.11637C6.46646 3.52437 6.68018 3.03065 6.96361 2.64551C7.27218 2.22494 7.66532 1.93465 8.12361 1.80323C8.42761 1.71637 8.74075 1.7358 9.03447 1.85123V1.85237ZM13.7385 12.2409C14.8082 12.2409 15.7956 12.5987 16.5339 13.2181C17.2539 13.8204 17.6825 14.6295 17.6825 15.4352C17.6825 16.4501 17.2185 17.2409 16.3876 17.7461C15.679 18.1747 14.7293 18.3827 13.6413 18.3827C12.4882 18.3827 11.503 18.0867 10.7922 17.5438C10.087 17.0067 9.69161 16.2524 9.69161 15.4352C9.69161 14.6272 10.1465 13.8158 10.8985 13.2112C11.6619 12.5975 12.6699 12.2409 13.7385 12.2409ZM13.7385 13.2649C12.9456 13.258 12.1737 13.5199 11.5488 14.0078C11.0219 14.4307 10.7236 14.9621 10.7236 15.4364C10.7236 15.9255 10.9636 16.3838 11.4208 16.7324C11.9408 17.1289 12.7053 17.3587 13.6413 17.3587C14.5545 17.3587 15.3248 17.1907 15.8493 16.8718C16.3785 16.5518 16.6493 16.0878 16.6493 15.4352C16.6493 14.9518 16.3682 14.4181 15.8688 13.9998C15.3156 13.5369 14.5659 13.2649 13.7385 13.2649ZM14.495 14.6478L14.4996 14.6524C14.6368 14.8249 14.6082 15.0752 14.4356 15.2124L14.1019 15.4752V15.9849C14.1013 16.0984 14.0557 16.207 13.9752 16.2869C13.8946 16.3668 13.7856 16.4115 13.6722 16.4112C13.5587 16.4115 13.4498 16.3668 13.3692 16.2869C13.2886 16.207 13.2431 16.0984 13.2425 15.9849V15.4592L12.9328 15.2101C12.8919 15.1773 12.8579 15.1368 12.8328 15.0909C12.8077 15.045 12.7919 14.9945 12.7864 14.9425C12.7809 14.8904 12.7857 14.8378 12.8006 14.7876C12.8155 14.7374 12.8402 14.6907 12.8733 14.6501C12.9408 14.568 13.0379 14.5158 13.1436 14.5049C13.2493 14.494 13.3551 14.5252 13.4379 14.5918L13.6836 14.7884L13.935 14.5895C14.0176 14.5243 14.1223 14.4939 14.2269 14.5048C14.3315 14.5157 14.4277 14.567 14.495 14.6478ZM8.73504 12.4547C9.28132 12.4547 9.72589 12.9004 9.72589 13.4501C9.7262 13.7136 9.62189 13.9664 9.43589 14.1531C9.24988 14.3397 8.9974 14.4449 8.73389 14.4455C8.47079 14.4446 8.21877 14.3394 8.03304 14.1531C7.84732 13.9667 7.74304 13.7143 7.74304 13.4512C7.74243 13.1877 7.84645 12.9348 8.03223 12.7479C8.21802 12.561 8.47153 12.4556 8.73504 12.4547ZM18.6848 12.4547C19.2333 12.4547 19.6768 12.9004 19.6768 13.4501C19.6771 13.7136 19.5727 13.9664 19.3867 14.1531C19.2007 14.3397 18.9483 14.4449 18.6848 14.4455C18.4216 14.4446 18.1696 14.3394 17.9839 14.1531C17.7982 13.9667 17.6939 13.7143 17.6939 13.4512C17.6933 13.1877 17.7973 12.9348 17.9831 12.7479C18.1689 12.561 18.4213 12.4556 18.6848 12.4547ZM8.50304 3.23523L8.49961 3.23751C8.36721 3.29509 8.25415 3.3895 8.17389 3.50951L8.16818 3.51637C8.01046 3.73237 7.87332 4.05008 7.77046 4.46723C7.57618 5.25808 7.52361 6.33123 7.62875 7.64665C8.12018 7.50037 8.65618 7.40894 9.23332 7.3758L9.24475 7.37465L9.26647 7.3358C9.31904 7.24208 9.37504 7.1518 9.43561 7.06265C9.57618 6.18151 9.46075 5.12894 9.14647 4.26951C8.99332 3.85351 8.80704 3.52665 8.62875 3.34037C8.59194 3.30164 8.55093 3.26714 8.50646 3.23751L8.50304 3.23523ZM18.9876 3.28094L18.9853 3.28208C18.9409 3.31171 18.8998 3.34621 18.863 3.38494C18.6848 3.57123 18.4973 3.89923 18.3453 4.31523C18.0139 5.22265 17.903 6.34494 18.0825 7.25465L18.1488 7.36551L18.1579 7.38151H18.1922C18.7594 7.38166 19.3236 7.46325 19.8676 7.6238C19.9659 6.33923 19.911 5.28894 19.7213 4.51294C19.6185 4.0958 19.4813 3.77808 19.3225 3.56208L19.3179 3.55523C19.2378 3.43479 19.1247 3.33997 18.9922 3.28208H18.9876V3.28094Z" fill="#010507"/>
<path fill-rule="evenodd" clip-rule="evenodd" d="M37.8159 7.57104C35.7753 7.57104 34.1801 8.22778 33.0297 9.57954C31.9173 10.8561 31.3794 12.5087 31.3794 14.5541C31.3794 16.5814 31.9173 18.2334 33.0304 19.5099C34.1794 20.8241 35.7753 21.4996 37.8159 21.4996C39.8373 21.4996 41.4325 20.8429 42.6015 19.5287C43.7146 18.271 44.2704 16.619 44.2704 14.5541C44.2704 12.4892 43.7146 10.8185 42.6015 9.56074C41.4325 8.22778 39.8373 7.57104 37.8153 7.57104H37.8159ZM37.8159 9.50433C39.1884 9.50433 40.2456 9.93612 40.9877 10.8373C41.7111 11.7385 42.0822 12.9774 42.0822 14.5541C42.0822 16.1308 41.7111 17.351 40.9877 18.2334C40.2456 19.1157 39.1884 19.5663 37.8153 19.5663C36.4428 19.5663 35.367 19.0969 34.6256 18.177C33.9015 17.2758 33.5497 16.0744 33.5497 14.5541C33.5497 13.015 33.9015 11.8137 34.6256 10.9118C35.3856 9.97372 36.4435 9.50433 37.8159 9.50433ZM45.8477 7.57104V21.2371H47.9622V7.57104H45.8477ZM50.0953 7.57104V21.2371H52.2097V7.57104H50.0953ZM58.5159 11.2691C57.2918 11.2691 56.3277 11.4752 55.6228 11.9258C54.7884 12.414 54.2684 13.2024 54.0642 14.2728L56.1608 14.4413C56.2718 13.9343 56.5497 13.5589 56.958 13.3152C57.3104 13.0902 57.7746 12.9962 58.3677 12.9962C59.7401 12.9962 60.427 13.616 60.427 14.8919V15.268L58.3304 15.3237C56.9208 15.3613 55.827 15.6615 55.0477 16.2249C54.1946 16.8064 53.7863 17.6512 53.7863 18.7404C53.7863 19.5475 54.0828 20.2043 54.6759 20.7301C55.2518 21.2371 56.0304 21.4996 57.0325 21.4996C57.867 21.4996 58.5904 21.3492 59.2022 21.0678C59.7401 20.8053 60.2042 20.448 60.5746 19.9605V21.2371H62.5415V15.0423C62.5415 13.8598 62.2449 12.9586 61.6511 12.3388C60.9828 11.6257 59.9256 11.2691 58.5159 11.2691ZM60.4263 16.8064V17.2946C60.4263 18.0453 60.1297 18.6652 59.5732 19.1533C59.0173 19.6227 58.3304 19.8665 57.5146 19.8665C57.0511 19.8665 56.6801 19.7349 56.3835 19.5099C56.0863 19.2843 55.9559 19.0029 55.9559 18.6652C55.9559 17.5411 56.7346 16.9429 58.3077 16.8684L60.4263 16.8064ZM69.0153 11.2691C68.0884 11.2691 67.2159 11.6821 66.4187 12.5268V11.5316H64.3035V21.2371H66.418V15.4177C66.418 14.7791 66.6035 14.2164 66.9746 13.7658C67.3456 13.2783 67.8277 13.0526 68.4401 13.0526C69.7008 13.0526 70.3318 13.7839 70.3318 15.2673V21.2371H72.4463V15.3049C72.4463 14.5917 72.6132 14.0471 72.9842 13.653C73.3366 13.24 73.7635 13.0526 74.2828 13.0526C75.0242 13.0526 75.5442 13.2212 75.878 13.5777C76.1932 13.9162 76.3601 14.4789 76.3601 15.2492V21.2371H78.4746V14.8731C78.4746 13.8034 78.1408 12.9398 77.5104 12.2643C76.8421 11.5887 76.0263 11.2691 75.0428 11.2691C74.3939 11.2691 73.8566 11.3819 73.429 11.6068C72.947 11.8325 72.4835 12.2455 72.038 12.8465C71.4263 11.7949 70.4249 11.2691 69.0153 11.2691ZM84.5966 11.2691C83.3725 11.2691 82.4077 11.4752 81.7028 11.9258C80.8684 12.414 80.349 13.2024 80.1442 14.2728L82.2408 14.4413C82.3518 13.9343 82.6304 13.5589 83.038 13.3152C83.3904 13.0902 83.8546 12.9962 84.4477 12.9962C85.8201 12.9962 86.507 13.616 86.507 14.8919V15.268L84.4104 15.3237C83.0015 15.3613 81.907 15.6615 81.1277 16.2249C80.2746 16.8064 79.8663 17.6512 79.8663 18.7404C79.8663 19.5475 80.1628 20.2043 80.7566 20.7301C81.3318 21.2371 82.1111 21.4996 83.1125 21.4996C83.947 21.4996 84.6711 21.3492 85.2828 21.0678C85.8208 20.8053 86.2842 20.448 86.6553 19.9605V21.2371H88.6208V15.0423C88.6208 13.8598 88.3242 12.9586 87.7304 12.3388C87.0628 11.6257 86.0063 11.2691 84.5966 11.2691ZM86.507 16.8064V17.2946C86.507 18.0453 86.2104 18.6652 85.6539 19.1533C85.0973 19.6227 84.4111 19.8665 83.5946 19.8665C83.1311 19.8665 82.7601 19.7349 82.4635 19.5099C82.167 19.2843 82.0366 19.0029 82.0366 18.6652C82.0366 17.5411 82.8146 16.9429 84.3884 16.8684L86.507 16.8064Z" fill="#010507"/>
</svg>
