<svg width="79" height="22" viewBox="0 0 79 22" fill="none" xmlns="http://www.w3.org/2000/svg">
<g clip-path="url(#clip0_6971_6418)">
<path d="M24.3223 10.409C24.3223 13.8399 26.5463 16.2321 29.6283 16.2321C32.7102 16.2321 34.9343 13.8399 34.9343 10.409C34.9343 6.97813 32.7102 4.58594 29.6283 4.58594C26.5463 4.58594 24.3223 6.97813 24.3223 10.409ZM32.9009 10.409C32.9009 12.8642 31.5505 14.4537 29.6283 14.4537C27.706 14.4537 26.3557 12.8642 26.3557 10.409C26.3557 7.95389 27.706 6.36434 29.6283 6.36434C31.5505 6.36434 32.9009 7.95389 32.9009 10.409Z" fill="#010507"/>
<path d="M40.6607 16.2322C42.9959 16.2322 44.3304 14.2806 44.3304 11.9357C44.3304 9.59068 42.9959 7.63916 40.6607 7.63916C39.5804 7.63916 38.7861 8.06409 38.2618 8.67788V7.79654H36.3555V18.8919H38.2618V15.1934C38.7861 15.8072 39.5804 16.2322 40.6607 16.2322ZM38.2142 11.6996C38.2142 10.1415 39.1038 9.29166 40.2794 9.29166C41.6615 9.29166 42.4081 10.3619 42.4081 11.9357C42.4081 13.5095 41.6615 14.5797 40.2794 14.5797C39.1038 14.5797 38.2142 13.7141 38.2142 12.1875V11.6996Z" fill="#010507"/>
<path d="M49.4895 16.2322C51.1575 16.2322 52.4761 15.3666 53.0639 13.9187L51.4276 13.3049C51.1734 14.1547 50.4268 14.6269 49.4895 14.6269C48.2662 14.6269 47.4084 13.7613 47.2654 12.3449H53.1116V11.7153C53.1116 9.44904 51.8248 7.63916 49.41 7.63916C46.9953 7.63916 45.4385 9.51199 45.4385 11.9357C45.4385 14.4852 47.1065 16.2322 49.4895 16.2322ZM49.3942 9.22871C50.6015 9.22871 51.1734 10.0156 51.1893 10.9284H47.3607C47.6467 9.81102 48.4092 9.22871 49.3942 9.22871Z" fill="#010507"/>
<path d="M54.542 16.059H56.4484V11.2117C56.4484 10.0314 57.3221 9.40183 58.18 9.40183C59.2285 9.40183 59.6415 10.1415 59.6415 11.1645V16.059H61.5479V10.6137C61.5479 8.83526 60.4994 7.63916 58.7519 7.63916C57.6716 7.63916 56.9249 8.12704 56.4484 8.67788V7.79654H54.542V16.059Z" fill="#010507"/>
<path d="M67.1311 4.75903L62.8101 16.059H64.8276L65.7967 13.4779H70.7214L71.7064 16.059H73.7557L69.4346 4.75903H67.1311ZM68.2432 6.99384L70.0542 11.7153H66.4639L68.2432 6.99384Z" fill="#010507"/>
<path d="M77.0281 4.79175H74.9946V16.0917H77.0281V4.79175Z" fill="#010507"/>
<path d="M19.6634 8.90931C20.144 7.48042 19.9785 5.91514 19.21 4.61543C18.0542 2.62194 15.7309 1.59634 13.4618 2.07897C12.4523 0.952389 11.0021 0.311718 9.48161 0.320898C7.16221 0.315652 5.10427 1.79503 4.39071 3.98132C2.90071 4.28362 1.61458 5.20758 0.861967 6.51712C-0.302366 8.50537 -0.0369322 11.0117 1.5186 12.7166C1.03804 14.1455 1.20352 15.7108 1.97202 17.0105C3.12775 19.004 5.45112 20.0296 7.72021 19.547C8.72899 20.6735 10.1799 21.3142 11.7004 21.3044C14.0211 21.3103 16.0797 19.8296 16.7933 17.6413C18.2833 17.339 19.5694 16.4151 20.322 15.1055C21.485 13.1173 21.2189 10.613 19.6641 8.908L19.6634 8.90931ZM11.7017 19.9332C10.773 19.9345 9.87347 19.6125 9.16057 19.023C9.193 19.006 9.24927 18.9751 9.28567 18.9528L13.5035 16.5397C13.7193 16.4184 13.8517 16.1908 13.8503 15.9449V10.0543L15.6329 11.074C15.6521 11.0831 15.6647 11.1015 15.6673 11.1225V16.0006C15.6647 18.1699 13.8914 19.9286 11.7017 19.9332ZM3.17342 16.3246C2.70809 15.5285 2.54062 14.5954 2.70014 13.6898C2.73125 13.7081 2.78619 13.7416 2.82525 13.7639L7.04306 16.177C7.25686 16.301 7.52163 16.301 7.7361 16.177L12.8852 13.2314V15.2708C12.8866 15.2918 12.8766 15.3121 12.8601 15.3252L8.59661 17.764C6.69753 18.8473 4.27222 18.2033 3.17408 16.3246H3.17342ZM2.06337 7.20369C2.52672 6.4063 3.25815 5.79645 4.12925 5.47972C4.12925 5.51578 4.12726 5.57939 4.12726 5.62398V10.451C4.12594 10.6962 4.25832 10.9238 4.47345 11.0451L9.6226 13.9901L7.84002 15.0098C7.82215 15.0216 7.79964 15.0236 7.77979 15.015L3.51564 12.5743C1.62054 11.4871 0.970523 9.08505 2.06271 7.20435L2.06337 7.20369ZM16.7092 10.5802L11.5601 7.63452L13.3426 6.61548C13.3605 6.60368 13.383 6.60171 13.4029 6.61024L17.667 9.04899C19.5654 10.1356 20.2161 12.5415 19.1193 14.4222C18.6553 15.2183 17.9245 15.8282 17.0541 16.1456V11.1743C17.0561 10.929 16.9243 10.7021 16.7099 10.5802H16.7092ZM18.4832 7.93486C18.4521 7.91584 18.3971 7.88306 18.3581 7.86076L14.1403 5.44758C13.9265 5.32365 13.6617 5.32365 13.4472 5.44758L8.29808 8.39323V6.35384C8.29675 6.33285 8.30668 6.31252 8.32323 6.29941L12.5867 3.86263C14.4858 2.77735 16.9137 3.42327 18.0086 5.30529C18.4713 6.10006 18.6387 7.03057 18.4819 7.93486H18.4832ZM7.32901 11.5697L5.54578 10.55C5.52658 10.5408 5.514 10.5225 5.51136 10.5015V5.62333C5.51268 3.45147 7.29128 1.69142 9.48359 1.69274C10.411 1.69274 11.3085 2.01537 12.0214 2.60292C11.989 2.61997 11.9334 2.65079 11.8963 2.67309L7.67851 5.08626C7.46272 5.20758 7.33034 5.43447 7.33166 5.68038L7.32901 11.5684V11.5697ZM8.29741 9.50146L10.591 8.18929L12.8846 9.5008V12.1245L10.591 13.436L8.29741 12.1245V9.50146Z" fill="#010507"/>
</g>
<defs>
<clipPath id="clip0_6971_6418">
<rect width="78.1076" height="20.9685" fill="white" transform="translate(0 0.320801)"/>
</clipPath>
</defs>
</svg>
