<svg width="113" height="19" viewBox="0 0 113 19" fill="none" xmlns="http://www.w3.org/2000/svg">
<g clip-path="url(#clip0_6971_6398)">
<path d="M27.7036 14.2258V2.96458H32.5972C33.6522 2.96458 34.4677 3.27118 35.044 3.88408C35.6203 4.49728 35.9086 5.32003 35.9086 6.35263C35.9086 7.38523 35.6203 8.20813 35.044 8.82103C34.4677 9.43408 33.6522 9.74068 32.5972 9.74068H29.547V14.2258H27.7036ZM29.547 8.14333H32.4831C32.9506 8.14333 33.315 8.02243 33.576 7.78033C33.837 7.53853 33.9675 7.19158 33.9675 6.73993V5.96548C33.9675 5.51368 33.837 5.16673 33.576 4.92478C33.315 4.68283 32.9506 4.56178 32.4831 4.56178H29.547V8.14333ZM43.0042 5.83633H44.7171L41.1448 15.8877C41.0469 16.1673 40.9353 16.4067 40.8103 16.6057C40.6852 16.8046 40.5384 16.966 40.3698 17.0896C40.2013 17.2134 39.9975 17.3047 39.7582 17.3638C39.519 17.4231 39.2362 17.4526 38.91 17.4526H37.8823V16.0168H39.3177L39.8071 14.5969L36.7242 5.83633H38.5021L40.1986 10.7733L40.6881 12.5964H40.7695L41.3079 10.7733L43.0042 5.83633ZM51.4222 12.8385H51.3408C51.1558 13.3332 50.854 13.7203 50.4354 14.0001C50.0167 14.2797 49.5246 14.4195 48.9591 14.4195C47.8825 14.4195 47.0506 14.035 46.4634 13.266C45.8761 12.4968 45.5826 11.4186 45.5826 10.0312C45.5826 8.64373 45.8761 7.56538 46.4634 6.79633C47.0506 6.02728 47.8825 5.64283 48.9591 5.64283C49.5246 5.64283 50.0167 5.77993 50.4354 6.05428C50.854 6.32848 51.1558 6.71833 51.3408 7.22383H51.4222V2.28718H53.2002V14.226H51.4222V12.8385ZM49.4974 12.903C50.0412 12.903 50.4979 12.7711 50.8677 12.5076C51.2373 12.2442 51.4222 11.8972 51.4222 11.467V8.59528C51.4222 8.16508 51.2373 7.81813 50.8677 7.55458C50.4979 7.29103 50.0412 7.15933 49.4974 7.15933C48.8776 7.15933 48.3828 7.35568 48.013 7.74823C47.6433 8.14078 47.4585 8.65978 47.4585 9.30523V10.7572C47.4585 11.4025 47.6433 11.9215 48.013 12.3141C48.3828 12.7066 48.8776 12.903 49.4974 12.903ZM61.9597 14.2258C61.4922 14.2258 61.1332 14.0941 60.8832 13.8306C60.633 13.5672 60.4807 13.231 60.4264 12.8223H60.345C60.1816 13.3494 59.8827 13.7472 59.4478 14.0163C59.0127 14.2851 58.4853 14.4195 57.8655 14.4195C56.9847 14.4195 56.3077 14.1937 55.8346 13.7419C55.3615 13.2901 55.1251 12.6825 55.1251 11.9188C55.1251 11.0797 55.4322 10.4506 56.0466 10.0312C56.661 9.61168 57.561 9.40198 58.7463 9.40198H60.2796V8.69203C60.2796 8.17573 60.1383 7.77778 59.8555 7.49803C59.5728 7.21843 59.1324 7.07863 58.5342 7.07863C58.0341 7.07863 57.6262 7.18618 57.3109 7.40128C56.9955 7.61638 56.7291 7.89073 56.5116 8.22418L55.4512 7.27228C55.734 6.79903 56.131 6.40903 56.6421 6.10258C57.1531 5.79598 57.822 5.64268 58.6485 5.64268C59.7468 5.64268 60.5895 5.89558 61.1769 6.40108C61.764 6.90658 62.0577 7.63258 62.0577 8.57908V12.79H62.9548V14.2258H61.9597ZM58.3711 13.0804C58.9257 13.0804 59.3824 12.9594 59.7412 12.7174C60.1002 12.4753 60.2796 12.15 60.2796 11.7412V10.5313H58.779C57.5502 10.5313 56.9356 10.9078 56.9356 11.6605V11.9509C56.9356 12.3274 57.0634 12.6099 57.319 12.798C57.5745 12.9862 57.9253 13.0804 58.3711 13.0804ZM64.7002 14.2258V5.83633H66.4782V7.22383H66.5596C66.7446 6.77218 67.0246 6.39583 67.3998 6.09448C67.7749 5.79328 68.2888 5.64268 68.9413 5.64268C69.8112 5.64268 70.4881 5.92513 70.9722 6.48973C71.4561 7.05448 71.698 7.85848 71.698 8.90173V14.2258H69.9199V9.12763C69.9199 7.81543 69.3871 7.15933 68.3214 7.15933C68.0931 7.15933 67.8673 7.18888 67.6444 7.24813C67.4215 7.30723 67.2231 7.39588 67.0491 7.51438C66.8771 7.63042 66.7347 7.78503 66.6331 7.96588C66.5298 8.14888 66.4782 8.36398 66.4782 8.61133V14.2258H64.7002ZM76.51 14.2258C75.8902 14.2258 75.4225 14.0673 75.1072 13.7499C74.7918 13.4326 74.6341 12.9835 74.6341 12.4029V7.27213H73.3129V5.83618H74.0307C74.3242 5.83618 74.5281 5.77168 74.6424 5.64268C74.7565 5.51368 74.8135 5.30368 74.8135 5.01343V3.54523H76.4121V5.83618H78.1902V7.27213H76.4121V12.7899H78.0597V14.2257L76.51 14.2258ZM81.0121 4.33588C80.6424 4.33588 80.3731 4.24993 80.2047 4.07788C80.0361 3.90568 79.9518 3.68518 79.9518 3.41638V3.14188C79.9518 2.87308 80.0361 2.65258 80.2047 2.48053C80.3731 2.30848 80.6424 2.22253 81.0121 2.22253C81.3819 2.22253 81.6483 2.30848 81.8115 2.48053C81.9745 2.65258 82.056 2.87308 82.056 3.14203V3.41623C82.056 3.68518 81.9745 3.90568 81.8115 4.07773C81.6483 4.24993 81.3819 4.33588 81.0121 4.33588ZM80.115 5.83633H81.8929V14.2258H80.115V5.83633ZM87.7164 14.4195C87.1074 14.4195 86.5636 14.3175 86.0851 14.113C85.6066 13.9086 85.2043 13.6155 84.8781 13.2337C84.5518 12.8518 84.3016 12.3894 84.1276 11.8462C83.9536 11.3029 83.8668 10.698 83.8668 10.0312C83.8668 9.36418 83.9536 8.75923 84.1276 8.21623C84.3016 7.67293 84.5518 7.21033 84.8781 6.82873C85.2043 6.44668 85.6066 6.15373 86.0851 5.94928C86.5636 5.74498 87.1074 5.64268 87.7164 5.64268C88.5646 5.64268 89.2606 5.83093 89.8042 6.20743C90.348 6.58393 90.7449 7.08403 90.9951 7.70788L89.527 8.38558C89.4073 7.99828 89.1981 7.68913 88.899 7.45783C88.5999 7.22653 88.2057 7.11088 87.7164 7.11088C87.0639 7.11088 86.5719 7.31263 86.2402 7.71598C85.9084 8.11933 85.7425 8.64358 85.7425 9.28903V10.7893C85.7425 11.4348 85.9084 11.9592 86.2402 12.3625C86.5719 12.7659 87.0639 12.9675 87.7164 12.9675C88.2384 12.9675 88.6542 12.841 88.9642 12.5883C89.2741 12.3355 89.5215 11.9995 89.7064 11.58L91.0603 12.2899C90.7776 12.9783 90.3534 13.5052 89.788 13.8709C89.2225 14.2366 88.5319 14.4195 87.7164 14.4195ZM103.849 14.2258L102.821 11.1766H98.5638L97.5688 14.2258H95.6928L99.5751 2.96458H101.892L105.774 14.2258H103.849ZM100.733 4.64233H100.652L99.0042 9.61168H102.364L100.733 4.64233ZM107.046 14.2258V12.7416H108.596V4.44883H107.046V2.96458H112.005V4.44883H110.439V12.7416H112.005V14.2258H107.046Z" fill="#010507"/>
<path d="M21.5129 13.852L11.95 0.603742C11.6489 0.190192 10.955 0.190192 10.657 0.603742L1.09404 13.852C0.996697 13.9876 0.944339 14.1503 0.944336 14.3172C0.944569 14.4848 0.997445 14.6481 1.0955 14.784C1.19355 14.9199 1.33182 15.0216 1.49079 15.0747L11.0539 18.2023H11.0554C11.2159 18.2547 11.3889 18.2547 11.5495 18.2023H11.551L21.1139 15.0748C21.2333 15.0362 21.3417 14.9697 21.4302 14.8809C21.5187 14.792 21.5848 14.6834 21.623 14.5639C21.6624 14.4449 21.6727 14.3182 21.6532 14.1944C21.6336 14.0705 21.5848 13.9532 21.5107 13.852H21.5129ZM11.3039 2.42939L15.1369 7.73984L11.5525 6.56789C11.5247 6.55889 11.4955 6.56039 11.4679 6.55379C11.4408 6.5471 11.4132 6.54259 11.3854 6.54029C11.3578 6.53654 11.3315 6.52604 11.3039 6.52604C11.2762 6.52604 11.2507 6.53654 11.2229 6.54029C11.1953 6.54329 11.1676 6.54779 11.1407 6.55379C11.1122 6.55904 11.083 6.55904 11.0576 6.56789L7.49484 7.73309L7.47234 7.74059L11.3054 2.42909H11.3039V2.42939ZM5.88834 9.93329L10.0612 8.56769L10.5067 8.42264V16.3483L3.02469 13.9006L5.88834 9.93329ZM12.1019 16.3468V8.42264L16.7201 9.93329L19.5838 13.8984L12.1012 16.3468H12.1019Z" fill="#010507"/>
</g>
<defs>
<clipPath id="clip0_6971_6398">
<rect width="111.15" height="18" fill="white" transform="translate(0.944336 0.267578)"/>
</clipPath>
</defs>
</svg>
